<svg xmlns="http://www.w3.org/2000/svg" version="1.1" xmlns:xlink="http://www.w3.org/1999/xlink" xmlns:svgjs="http://svgjs.dev/svgjs" width="1000" height="431" viewBox="0 0 1000 431"><g transform="matrix(1,0,0,1,-0.6060606060606233,0.48792853935094627)"><svg viewBox="0 0 396 171" data-background-color="#ffffff" preserveAspectRatio="xMidYMid meet" height="431" width="1000" xmlns="http://www.w3.org/2000/svg" xmlns:xlink="http://www.w3.org/1999/xlink"><g id="tight-bounds" transform="matrix(1,0,0,1,0.2400000000000091,-0.19358649705107212)"><svg viewBox="0 0 395.52 171.38717299410214" height="171.38717299410214" width="395.52"><g><svg viewBox="0 0 611.9965514154351 265.19103668393785" height="171.38717299410214" width="395.52"><g transform="matrix(1,0,0,1,216.4765514154351,81.94787955588454)"><svg viewBox="0 0 395.52 101.29527757216877" height="101.29527757216877" width="395.52"><g><svg viewBox="0 0 395.52 101.29527757216877" height="101.29527757216877" width="395.52"><g><svg viewBox="0 0 395.52 101.29527757216877" height="101.29527757216877" width="395.52"><g transform="matrix(1,0,0,1,0,0)"><svg width="395.52" viewBox="3.03 -40.4 201.65 51.9" height="101.29527757216877" data-palette-color="#ffffff"><g class="undefined-text-0" data-fill-palette-color="primary" id="text-0"><path d="M23.63-19.1Q26.88-18.38 28.69-16.18 30.5-13.98 30.5-10.33L30.5-10.33Q30.5-4.95 26.34-2.26 22.18 0.43 13 0.43L13 0.43Q10.75 0.43 8.04 0.23 5.33 0.03 3.03-0.3L3.03-0.3 3.03-36.27Q5.58-36.83 8.5-37.14 11.43-37.45 14.23-37.45L14.23-37.45Q19.5-37.45 22.86-36.35 26.23-35.25 27.84-33 29.45-30.75 29.45-27.23L29.45-27.23Q29.45-24.25 27.93-22.08 26.4-19.9 23.63-19.1L23.63-19.1ZM15.38-31.55Q12.98-31.55 10.63-31.15L10.63-31.15 10.63-21.95 15.48-21.95Q17.93-21.95 19.38-22.46 20.83-22.98 21.48-24.01 22.13-25.05 22.13-26.73L22.13-26.73Q22.13-28.48 21.46-29.53 20.8-30.58 19.33-31.06 17.85-31.55 15.38-31.55L15.38-31.55ZM15.08-5.48Q18.1-5.48 19.89-6.03 21.68-6.58 22.45-7.73 23.23-8.88 23.23-10.73L23.23-10.73Q23.23-13.38 21.54-14.61 19.85-15.85 16.2-15.85L16.2-15.85 10.63-15.85 10.63-5.7Q13.05-5.48 15.08-5.48L15.08-5.48ZM42.02 0L34.35 0 34.35-27.35 42.02-27.35 42.02 0ZM38.2-31.3Q35.8-31.3 34.61-32.39 33.42-33.48 33.42-35.48L33.42-35.48Q33.42-37.5 34.61-38.59 35.8-39.68 38.2-39.68L38.2-39.68Q40.57-39.68 41.76-38.58 42.95-37.48 42.95-35.48L42.95-35.48Q42.95-33.48 41.76-32.39 40.57-31.3 38.2-31.3L38.2-31.3ZM60.97-5.98Q62-5.98 63.7-6.25L63.7-6.25 63.7-0.08Q62.67 0.2 61.41 0.35 60.15 0.5 58.95 0.5L58.95 0.5Q54.1 0.5 51.58-1.99 49.07-4.48 49.07-9.8L49.07-9.8 49.07-21.33 44.9-21.33 44.9-27.35 49.07-27.35 50.47-37 56.72-37 56.72-27.35 63.55-27.35 63.55-21.33 56.72-21.33 56.72-10.8Q56.72-8.97 57.15-7.93 57.57-6.88 58.5-6.43 59.42-5.98 60.97-5.98L60.97-5.98ZM88.94-13.53L88.94-11.38 73.69-11.38Q73.79-9.15 74.53-7.89 75.27-6.63 76.82-6.06 78.37-5.5 81.02-5.5L81.02-5.5Q83.82-5.5 87.54-6.4L87.54-6.4 87.54-0.43Q85.49 0.08 83.68 0.3 81.87 0.53 80.02 0.53L80.02 0.53Q75.12 0.53 72.03-0.95 68.94-2.43 67.46-5.58 65.97-8.72 65.97-13.75L65.97-13.75Q65.97-20.58 69.06-24.19 72.14-27.8 77.87-27.8L77.87-27.8Q83.32-27.8 86.13-24.16 88.94-20.53 88.94-13.53L88.94-13.53ZM77.82-22.8Q76.44-22.8 75.56-22.18 74.67-21.55 74.18-20.05 73.69-18.55 73.67-15.95L73.67-15.95 81.79-15.95Q81.77-18.55 81.32-20.05 80.87-21.55 80.02-22.18 79.17-22.8 77.82-22.8L77.82-22.8Z" fill="#ffffff" data-fill-palette-color="primary"></path><path d="M100.52 0.48Q98.12 0.48 95.57 0.08 93.02-0.33 90.94-1.05L90.94-1.05 90.94-7.5Q93.19-6.8 95.67-6.39 98.14-5.98 100.39-5.98L100.39-5.98Q106.94-5.98 106.94-10.25L106.94-10.25Q106.94-11.43 106.47-12.21 105.99-13 104.85-13.61 103.72-14.23 101.69-14.83L101.69-14.83 99.04-15.63Q90.01-18.25 90.01-26.23L90.01-26.23Q90.01-29.75 91.65-32.26 93.29-34.77 96.55-36.13 99.82-37.48 104.62-37.48L104.62-37.48Q106.89-37.48 109.02-37.2 111.14-36.93 112.84-36.45L112.84-36.45 112.84-29.98Q111.17-30.48 109.2-30.75 107.24-31.03 105.26-31.03L105.26-31.03Q101.29-31.03 99.55-29.9 97.82-28.78 97.82-26.75L97.82-26.75Q97.82-25.65 98.24-24.89 98.67-24.13 99.67-23.55 100.67-22.98 102.49-22.43L102.49-22.43 105.14-21.65Q109.94-20.28 112.34-17.69 114.74-15.1 114.74-10.9L114.74-10.9Q114.74-7.38 113.05-4.83 111.37-2.27 108.17-0.9 104.97 0.48 100.52 0.48L100.52 0.48ZM126.19 0L118.51 0 118.51-27.35 126.19-27.35 126.19 0ZM122.36-31.3Q119.96-31.3 118.78-32.39 117.59-33.48 117.59-35.48L117.59-35.48Q117.59-37.5 118.78-38.59 119.96-39.68 122.36-39.68L122.36-39.68Q124.74-39.68 125.92-38.58 127.11-37.48 127.11-35.48L127.11-35.48Q127.11-33.48 125.92-32.39 124.74-31.3 122.36-31.3L122.36-31.3ZM140.56 11.5Q138.53 11.5 136.36 11.25 134.19 11 132.34 10.48L132.34 10.48 132.34 4.42Q136.24 5.5 139.91 5.5L139.91 5.5Q143.59 5.5 145.28 3.99 146.99 2.48 146.99-1.1L146.99-1.1 146.99-2.93 146.61-2.93Q145.58-1.43 143.96-0.59 142.34 0.25 140.21 0.25L140.21 0.25Q137.56 0.25 135.35-1.18 133.14-2.6 131.78-5.61 130.43-8.63 130.43-13.15L130.43-13.15Q130.43-27.78 145.01-27.8L145.01-27.8Q147.46-27.8 150.01-27.41 152.56-27.03 154.63-26.3L154.63-26.3 154.63-2.45Q154.63 2.45 153.09 5.54 151.53 8.63 148.42 10.06 145.31 11.5 140.56 11.5L140.56 11.5ZM143.34-6.05Q144.36-6.05 145.33-6.43 146.31-6.8 146.99-7.5L146.99-7.5 146.99-21.65Q145.53-21.95 144.31-21.95L144.31-21.95Q141.24-21.95 139.72-20.08 138.21-18.2 138.21-13.83L138.21-13.83Q138.21-10.85 138.81-9.14 139.41-7.43 140.52-6.74 141.64-6.05 143.34-6.05L143.34-6.05ZM160.03 0L160.03-40.4 167.68-40.4 167.68-24.5 168.06-24.5Q170.61-27.8 175.13-27.8L175.13-27.8Q178.76-27.8 180.98-25.35 183.21-22.9 183.21-17.63L183.21-17.63 183.21 0 175.56 0 175.56-17.03Q175.56-19.2 174.67-20.13 173.78-21.05 172.11-21.05L172.11-21.05Q170.88-21.05 169.67-20.53 168.46-20 167.68-19L167.68-19 167.68 0 160.03 0ZM201.96-5.98Q202.98-5.98 204.68-6.25L204.68-6.25 204.68-0.08Q203.66 0.2 202.39 0.35 201.13 0.5 199.93 0.5L199.93 0.5Q195.08 0.5 192.57-1.99 190.06-4.48 190.06-9.8L190.06-9.8 190.06-21.33 185.88-21.33 185.88-27.35 190.06-27.35 191.46-37 197.71-37 197.71-27.35 204.53-27.35 204.53-21.33 197.71-21.33 197.71-10.8Q197.71-8.97 198.13-7.93 198.56-6.88 199.48-6.43 200.41-5.98 201.96-5.98L201.96-5.98Z" fill="#00e4e9" data-fill-palette-color="secondary"></path></g></svg></g></svg></g></svg></g></svg></g><g><svg viewBox="0 0 192.56316746730778 265.19103668393785" height="265.19103668393785" width="192.56316746730778"><g><svg version="1.0" xmlns="http://www.w3.org/2000/svg" xmlns:xlink="http://www.w3.org/1999/xlink" x="0" y="0" viewBox="0 0 72.613 100" enable-background="new 0 0 72.613 100" xml:space="preserve" width="192.56316746730778" height="265.19103668393785" class="icon-icon-0" data-fill-palette-color="accent" id="icon-0"><circle cx="23.177" cy="18.7" r="4.2" fill="#ffffff" data-fill-palette-color="accent"></circle><circle cx="49.436" cy="18.7" r="4.2" fill="#ffffff" data-fill-palette-color="accent"></circle><path d="M0 0v39.225h31.896v3.34L0 42.567V100h18.544l14.114-14.114-8.111-8.11 8.111-8.111-2.371-2.37-10.48 10.481 4.598 4.599-9.279 9.28H8.346V50.912h55.921v40.742h-6.778l-9.28-9.28 4.599-4.599L42.325 67.294l-2.371 2.37 8.112 8.111-8.112 8.11L54.069 100h18.544V42.567l-31.896-0.001v-3.34h31.896V0H0zM64.267 30.879H8.346V7.75h55.921V30.879z" fill="#ffffff" data-fill-palette-color="accent"></path><rect x="31.486" y="72.954" transform="matrix(0.7071 -0.7071 0.7071 0.7071 -44.3617 48.4522)" width="9.641" height="9.642" fill="#ffffff" data-fill-palette-color="accent"></rect></svg></g></svg></g></svg></g><defs></defs></svg><rect width="395.52" height="171.38717299410214" fill="none" stroke="none" visibility="hidden"></rect></g></svg></g></svg>